<svg width="20" height="20" viewBox="0 0 20 20" fill="none" xmlns="http://www.w3.org/2000/svg">
<path fill-rule="evenodd" clip-rule="evenodd" d="M5 0C2.23858 0 0 2.23858 0 5V15C0 17.7614 2.23858 20 5 20H15C17.7614 20 20 17.7614 20 15V5C20 2.23858 17.7614 0 15 0H5ZM13.6805 14.3827L8.63369 10L13.6805 5.61726C14.1065 5.24729 14.1065 4.64745 13.6805 4.27748C13.2545 3.90751 12.5637 3.90751 12.1377 4.27748L6.31952 9.33011C5.89349 9.70008 5.89349 10.2999 6.31952 10.6699L12.1377 15.7225C12.5637 16.0925 13.2545 16.0925 13.6805 15.7225C14.1065 15.3526 14.1065 14.7527 13.6805 14.3827Z" fill="#EA5959"/>
</svg>
