<svg width="20" height="22" viewBox="0 0 20 22" fill="none" xmlns="http://www.w3.org/2000/svg">
<path d="M1 5.44444H19M7.75 9.88889V16.5556M12.25 9.88889V16.5556M2.125 5.44444L3.25 18.7778C3.25 19.3671 3.48705 19.9324 3.90901 20.3491C4.33097 20.7659 4.90326 21 5.5 21H14.5C15.0967 21 15.669 20.7659 16.091 20.3491C16.5129 19.9324 16.75 19.3671 16.75 18.7778L17.875 5.44444M6.625 5.44444V2.11111C6.625 1.81643 6.74353 1.53381 6.95451 1.32544C7.16548 1.11706 7.45163 1 7.75 1H12.25C12.5484 1 12.8345 1.11706 13.0455 1.32544C13.2565 1.53381 13.375 1.81643 13.375 2.11111V5.44444" stroke="#EA5959" stroke-width="2" stroke-linecap="round" stroke-linejoin="round"/>
</svg>
