<svg width="30" height="30" viewBox="0 0 30 30" fill="none" xmlns="http://www.w3.org/2000/svg">
<ellipse cx="15.0038" cy="15" rx="15.0038" ry="15" fill="url(#paint0_linear_8700_512)"/>
<path d="M15.2578 12.7031V19.1198" stroke="white" stroke-width="1.25"/>
<path d="M13.7031 18.6562H16.8247" stroke="white" stroke-width="1.25" stroke-linecap="round"/>
<path d="M9.53906 12.7031H20.9879" stroke="white" stroke-width="1.25" stroke-linecap="round"/>
<path d="M11.1072 15H6.79368C6.75034 15 6.71193 14.9721 6.69856 14.9309L5.38281 10.875" stroke="white" stroke-width="1.25" stroke-linecap="round"/>
<path d="M6.94531 18.6641L7.45031 15.9955C7.45924 15.9482 7.50051 15.9141 7.54856 15.9141H10.5053C10.5533 15.9141 10.5946 15.9482 10.6035 15.9955L11.1085 18.6641" stroke="white" stroke-width="1.25" stroke-linecap="round"/>
<path d="M19.4297 15H23.515C23.5608 15 23.6008 14.9689 23.612 14.9245L24.6337 10.875" stroke="white" stroke-width="1.25" stroke-linecap="round"/>
<path d="M19.4297 18.6641L19.9347 15.9955C19.9436 15.9482 19.9849 15.9141 20.0329 15.9141H22.9896C23.0377 15.9141 23.079 15.9482 23.0879 15.9955L23.5929 18.6641" stroke="white" stroke-width="1.25" stroke-linecap="round"/>
<path d="M15.2578 12.7031V19.1198" stroke="white" stroke-width="1.25"/>
<path d="M13.7031 18.6562H16.8247" stroke="white" stroke-width="1.25" stroke-linecap="round"/>
<path d="M9.53906 12.7031H20.9879" stroke="white" stroke-width="1.25" stroke-linecap="round"/>
<path d="M11.1072 15H6.79368C6.75034 15 6.71193 14.9721 6.69856 14.9309L5.38281 10.875" stroke="white" stroke-width="1.25" stroke-linecap="round"/>
<path d="M6.94531 18.6641L7.45031 15.9955C7.45924 15.9482 7.50051 15.9141 7.54856 15.9141H10.5053C10.5533 15.9141 10.5946 15.9482 10.6035 15.9955L11.1085 18.6641" stroke="white" stroke-width="1.25" stroke-linecap="round"/>
<path d="M19.4297 15H23.515C23.5608 15 23.6008 14.9689 23.612 14.9245L24.6337 10.875" stroke="white" stroke-width="1.25" stroke-linecap="round"/>
<path d="M19.4297 18.6641L19.9347 15.9955C19.9436 15.9482 19.9849 15.9141 20.0329 15.9141H22.9896C23.0377 15.9141 23.079 15.9482 23.0879 15.9955L23.5929 18.6641" stroke="white" stroke-width="1.25" stroke-linecap="round"/>
<defs>
<linearGradient id="paint0_linear_8700_512" x1="15.0038" y1="0" x2="15.0038" y2="30" gradientUnits="userSpaceOnUse">
<stop stop-color="#101433"/>
<stop offset="1" stop-color="#303C99"/>
</linearGradient>
</defs>
</svg>
